<svg width="1200" height="1200" viewBox="0 0 1200 1200" fill="none" xmlns="http://www.w3.org/2000/svg">
<path d="M329.259 311.381C353.287 219.273 421.368 39.0611 565.537 43.0656C585.561 43.0656 609.59 51.0754 625.608 75.1037H629.612C689.683 75.1037 725.725 127.165 745.749 183.231C765.773 175.221 777.787 171.216 777.787 171.216C781.792 171.216 793.806 167.212 801.815 175.221C809.825 179.226 869.896 239.297 869.896 239.297C869.896 239.297 953.994 247.306 962.004 247.306C966.009 247.306 970.014 251.311 970.014 255.316C970.015 263.335 1090.12 1080.07 1090.16 1080.29L745.749 1156.38L109 1036.23C109.011 1036.14 189.094 403.488 193.099 383.466C197.103 355.433 197.104 351.429 229.142 343.419C265.184 331.405 297.221 319.39 329.259 311.381ZM629.613 439.531C629.555 439.49 601.509 419.512 533.5 423.513C385.326 423.513 309.236 523.631 309.236 627.753C309.236 751.899 433.382 755.904 433.382 831.993C433.382 852.017 421.368 876.045 389.33 876.045C341.274 876.045 285.208 827.988 285.208 827.988L257.175 924.102C257.175 924.102 313.241 992.182 421.368 992.182C513.477 992.182 581.557 924.102 581.557 815.975C581.557 679.815 429.378 655.786 429.378 599.72C429.378 587.705 433.383 547.659 501.463 547.659C549.519 547.66 585.562 567.683 585.562 567.683L629.613 439.531ZM561.532 79.1076C457.41 79.108 401.345 215.268 373.312 295.363L461.415 271.334C485.443 159.202 533.5 107.141 581.557 87.1174C573.547 83.1127 569.542 79.1076 561.532 79.1076ZM605.584 119.155C569.542 135.174 529.495 171.217 505.467 255.316L621.604 223.278V215.269C621.604 171.217 613.593 143.184 605.584 119.155ZM645.632 107.141C653.641 131.169 657.645 159.202 657.646 195.244V207.259L709.707 191.24C697.693 151.193 673.665 115.15 645.632 107.141Z" fill="#8DB849"/>
<path d="M958.177 247.723C954.172 247.723 870.073 239.714 870.073 239.714C870.073 239.714 810.003 179.643 801.993 175.638C797.989 171.634 797.989 171.634 793.984 171.634L745.927 1156.79L1090.33 1080.7C1090.33 1080.7 970.191 263.742 970.191 255.733C970.191 251.728 962.182 247.723 958.177 247.723Z" fill="#5A863E"/>
</svg>
